<?xml version="1.0" encoding="utf-8"?>
<!-- Generator: Adobe Illustrator 22.0.0, SVG Export Plug-In . SVG Version: 6.00 Build 0)  -->
<svg version="1.1" id="Layer_1" xmlns="http://www.w3.org/2000/svg" xmlns:xlink="http://www.w3.org/1999/xlink" x="0px" y="0px"
	 viewBox="0 0 188.2 49.3" style="enable-background:new 0 0 188.2 49.3;" xml:space="preserve">
<style type="text/css">
	.st0{fill:#FFFFFF;}
	.st1{fill:#231F20;}
	.st2{fill-rule:evenodd;clip-rule:evenodd;fill:#ED1C24;}
	.st3{fill-rule:evenodd;clip-rule:evenodd;fill:#00AEEF;}
	.st4{fill-rule:evenodd;clip-rule:evenodd;fill:#231F20;}
	.st5{fill-rule:evenodd;clip-rule:evenodd;fill:#005BAB;}
</style>
<path class="st0" d="M114.2,39.9h-9.5c-0.2,0-0.3,0-0.4,0.1c-0.1,0.1-0.2,0.2-0.2,0.3v0.4c0,0.1,0.1,0.2,0.2,0.3
	c0.1,0.1,0.2,0.1,0.4,0.1h3.6v7.1c0,0.1,0.1,0.2,0.2,0.3c0.1,0.1,0.2,0.1,0.4,0.1h1.2c0.2,0,0.3,0,0.4-0.1c0.1-0.1,0.2-0.2,0.2-0.3
	V41h3.7c0.2,0,0.3,0,0.4-0.1c0.1-0.1,0.1-0.2,0.1-0.3v-0.4c0-0.1-0.1-0.2-0.1-0.3C114.4,39.9,114.3,39.9,114.2,39.9"/>
<path class="st0" d="M126.1,40.3c-0.2-0.2-0.5-0.3-0.8-0.3c-0.3-0.1-0.7-0.1-1.2-0.1h-7c-0.2,0-0.3,0-0.4,0.1
	c-0.1,0.1-0.2,0.2-0.2,0.3v7.9c0,0.1,0.1,0.2,0.2,0.3c0.1,0.1,0.2,0.1,0.4,0.1h1.2c0.2,0,0.3,0,0.4-0.1c0.1-0.1,0.2-0.2,0.2-0.3
	v-4.2h3l2.7,4.5v0c0,0.1,0.1,0.1,0.2,0.1c0.1,0,0.2,0.1,0.3,0.1h1c0.2,0,0.3,0,0.4-0.1c0.1-0.1,0.2-0.2,0.2-0.3c0-0.1,0-0.2-0.1-0.2
	l-2.4-4h0c0.5,0,0.9,0,1.2-0.1c0.3-0.1,0.6-0.2,0.8-0.3c0.2-0.2,0.4-0.4,0.4-0.6c0.1-0.2,0.1-0.6,0.1-0.9v-0.1c0-0.4,0-0.7-0.1-0.9
	C126.5,40.6,126.3,40.4,126.1,40.3 M124.4,42.3c0,0.2,0,0.3-0.1,0.4c-0.1,0.1-0.2,0.1-0.4,0.1h-5.2V41h5.2c0.2,0,0.3,0,0.4,0.1
	c0,0.1,0.1,0.2,0.1,0.4V42.3z"/>
<path class="st0" d="M130.3,39.9h-1.2c-0.2,0-0.3,0-0.4,0.1c-0.1,0.1-0.2,0.2-0.2,0.3v7.9c0,0.1,0.1,0.2,0.2,0.3
	c0.1,0.1,0.2,0.1,0.4,0.1h1.2c0.1,0,0.3,0,0.4-0.1c0.1-0.1,0.1-0.2,0.1-0.3v-7.9c0-0.1,0-0.2-0.1-0.3
	C130.5,39.9,130.4,39.9,130.3,39.9"/>
<path class="st0" d="M15.7,39.9H9c-0.5,0-0.9,0-1.2,0.1C7.5,40,7.2,40.1,7,40.3c-0.2,0.1-0.3,0.4-0.4,0.6c-0.1,0.3-0.1,0.6-0.1,0.9
	v0.8c0,0.4,0.1,0.7,0.1,0.9C6.6,43.8,6.8,44,7,44.1c0.2,0.2,0.5,0.3,0.8,0.3c0.3,0,0.7,0.1,1.2,0.1h4.6c0.2,0,0.3,0,0.4,0.1
	C14,44.7,14,44.8,14,45v1.9c0,0.2,0,0.3-0.1,0.4c-0.1,0.1-0.2,0.1-0.4,0.1H7c-0.1,0-0.3,0-0.4,0.1c-0.1,0.1-0.1,0.2-0.1,0.3v0.5
	c0,0.1,0,0.2,0.1,0.3c0.1,0.1,0.2,0.1,0.4,0.1h6.8c0.5,0,0.8,0,1.1-0.1c0.3-0.1,0.6-0.2,0.8-0.3c0.2-0.1,0.3-0.3,0.4-0.4
	c0.1-0.2,0.1-0.4,0.1-0.6v-2.4c0-0.4,0-0.7-0.1-0.9c-0.1-0.3-0.2-0.5-0.4-0.6c-0.2-0.2-0.5-0.3-0.8-0.3c-0.3-0.1-0.7-0.1-1.2-0.1
	H9.1c-0.2,0-0.3,0-0.3-0.1c-0.1-0.1-0.1-0.2-0.1-0.4v-0.8c0-0.2,0-0.3,0.1-0.4c0,0,0.2-0.1,0.3-0.1h6.6c0.1,0,0.3-0.1,0.4-0.1
	c0.1-0.1,0.1-0.2,0.1-0.3v-0.5c0-0.1,0-0.2-0.1-0.3C16,39.9,15.8,39.9,15.7,39.9"/>
<path class="st0" d="M38.8,39.9h-6.1c-0.5,0-0.9,0-1.2,0.1c-0.3,0.1-0.6,0.2-0.8,0.3c-0.2,0.2-0.3,0.4-0.4,0.6
	c-0.1,0.3-0.1,0.5-0.1,0.9v4.8c0,0.4,0,0.7,0.1,0.9c0.1,0.2,0.2,0.4,0.4,0.6c0.2,0.1,0.5,0.3,0.8,0.3c0.3,0.1,0.7,0.1,1.2,0.1h6
	c0.2,0,0.3,0,0.4-0.1c0.1-0.1,0.2-0.2,0.2-0.3l0-0.4v0c0-0.1-0.1-0.2-0.2-0.3c-0.1-0.1-0.2-0.1-0.4-0.1h-5.9c-0.2,0-0.3,0-0.3-0.1
	c-0.1,0-0.1-0.2-0.1-0.4v-5.4c0-0.2,0-0.3,0.1-0.4c0.1-0.1,0.2-0.1,0.3-0.1h6c0.2,0,0.3,0,0.4-0.1c0.1-0.1,0.2-0.2,0.2-0.3v-0.4
	c0-0.1-0.1-0.2-0.2-0.3C39.1,40,39,39.9,38.8,39.9"/>
<path class="st0" d="M28.9,38.2h-1.2c-0.1,0-0.2,0-0.2,0.1l-0.1,0.2v0.8l0.1,0.2c0.1,0.1,0.1,0.1,0.2,0.1h0.2l-0.2,0.4h-1.2
	c-0.2,0-0.3,0-0.4,0.1c-0.1,0.1-0.1,0.2-0.1,0.3l0,7.1h-5.3c-0.2,0-0.3,0-0.3-0.1c-0.1,0-0.1-0.2-0.1-0.4v-6.7
	c0-0.1-0.1-0.2-0.2-0.3c-0.1-0.1-0.2-0.1-0.4-0.1h-1.2c-0.1,0-0.3,0-0.4,0.1c-0.1,0.1-0.2,0.2-0.2,0.3v6.4c0,0.4,0.1,0.7,0.1,0.9
	c0.1,0.2,0.2,0.4,0.4,0.6c0.2,0.1,0.5,0.3,0.8,0.3c0.3,0.1,0.7,0.1,1.2,0.1h7.1c0.2,0,0.3,0,0.4-0.1c0.1-0.1,0.2-0.2,0.2-0.3v-7.6
	l1-1.3v-0.9l-0.1-0.2C29.1,38.2,29,38.2,28.9,38.2"/>
<path class="st0" d="M25.4,36.5l-0.2,0l-0.1,0.1l-2,1.9c-0.1,0.1-0.1,0.2-0.1,0.3c0.1,0.1,0.2,0.1,0.4,0.1h0.9l0.1,0l0.1-0.1
	l2.5-1.9c0.1-0.1,0.1-0.2,0.1-0.3c-0.1-0.1-0.2-0.2-0.3-0.2H25.4"/>
<path class="st0" d="M146.7,39.9h-9.5c-0.2,0-0.3,0-0.4,0.1c-0.1,0.1-0.1,0.2-0.1,0.3v0.4c0,0.1,0.1,0.2,0.1,0.3
	c0.1,0.1,0.2,0.1,0.4,0.1h3.6v7.1c0,0.1,0,0.2,0.1,0.3c0.1,0.1,0.2,0.1,0.4,0.1h1.2c0.1,0,0.3,0,0.4-0.1c0.1-0.1,0.2-0.2,0.2-0.3V41
	h3.7c0.2,0,0.3,0,0.4-0.1c0.1-0.1,0.1-0.2,0.1-0.3v-0.4c0-0.1-0.1-0.2-0.1-0.3C147,39.9,146.9,39.9,146.7,39.9"/>
<path class="st0" d="M159.3,39.9h-1.2c-0.2,0-0.3,0-0.4,0.1c-0.1,0.1-0.1,0.2-0.1,0.3v2.5h-6.2v-2.5l-0.1-0.2
	c-0.1-0.1-0.2-0.1-0.4-0.3h-1.2c-0.2,0-0.3,0-0.4,0.1c-0.1,0.1-0.2,0.2-0.2,0.3v7.9c0,0.1,0.1,0.2,0.2,0.3c0.1,0.1,0.2,0.1,0.4,0.1
	h1.2c0.2,0,0.3,0,0.4-0.1c0.1-0.1,0.2-0.2,0.2-0.3v-4.1h6.1v4.1c0,0.1,0,0.2,0.1,0.3c0.1,0.1,0.2,0.1,0.4,0.1h1.2
	c0.2,0,0.3,0,0.4-0.1c0.1-0.1,0.2-0.2,0.2-0.3v-7.9c0-0.1-0.1-0.2-0.2-0.3C159.6,39.9,159.4,39.9,159.3,39.9"/>
<path class="st0" d="M182.4,39.9h-6.1c-0.5,0-0.9,0-1.2,0.1c-0.3,0.1-0.6,0.2-0.8,0.3c-0.2,0.2-0.4,0.4-0.4,0.6
	c-0.1,0.3-0.1,0.5-0.1,0.9v4.8c0,0.4,0,0.7,0.1,0.9c0.1,0.2,0.2,0.4,0.4,0.6c0.2,0.1,0.5,0.3,0.8,0.3c0.3,0.1,0.7,0.1,1.2,0.1h6
	c0.2,0,0.3,0,0.4-0.1c0.1-0.1,0.2-0.2,0.2-0.3l0-0.4v0c0-0.1-0.1-0.2-0.2-0.3c-0.1-0.1-0.2-0.1-0.4-0.1h-5.9c-0.2,0-0.3,0-0.3-0.1
	c-0.1,0-0.1-0.2-0.1-0.4v-5.4c0-0.2,0-0.3,0.1-0.4c0.1-0.1,0.2-0.1,0.3-0.1h6c0.2,0,0.3,0,0.4-0.1c0.1-0.1,0.2-0.2,0.2-0.3v-0.4
	c0-0.1-0.1-0.2-0.2-0.3C182.7,40,182.6,39.9,182.4,39.9"/>
<path class="st0" d="M172.5,38.2h-1.2l-0.2,0.1l-0.1,0.2v0.8l0.1,0.2l0.2,0.1h0.2l-0.2,0.4h-1.2c-0.2,0-0.3,0-0.4,0.1
	c-0.1,0.1-0.2,0.2-0.2,0.3l0,7.1h-5.3c-0.2,0-0.3,0-0.3-0.1c-0.1,0-0.1-0.2-0.1-0.4v-6.7c0-0.1-0.1-0.2-0.1-0.3
	c-0.1-0.1-0.2-0.1-0.4-0.1h-1.2c-0.2,0-0.3,0-0.4,0.1c-0.1,0.1-0.2,0.2-0.2,0.3v6.4c0,0.4,0.1,0.7,0.1,0.9c0.1,0.2,0.2,0.4,0.4,0.6
	c0.2,0.1,0.5,0.3,0.8,0.3c0.3,0.1,0.7,0.1,1.2,0.1h7.1c0.2,0,0.3,0,0.4-0.1c0.1-0.1,0.1-0.2,0.1-0.3v-7.6l1-1.3v-0.9l-0.1-0.2
	C172.7,38.2,172.6,38.2,172.5,38.2"/>
<path class="st0" d="M168.8,36.5l-0.1,0.1l-2,1.9c-0.1,0.1-0.1,0.2-0.1,0.3c0.1,0.1,0.2,0.1,0.3,0.1h0.9l0.1,0l0.1-0.1l2.5-1.9
	c0.1-0.1,0.2-0.2,0.1-0.3c-0.1-0.1-0.2-0.2-0.3-0.2H169L168.8,36.5"/>
<path class="st0" d="M60.6,40c-0.1-0.1-0.2-0.1-0.3-0.1c-0.1,0-0.3,0-0.5,0h-14c-0.2,0-0.3,0-0.4,0.1c-0.1,0.1-0.2,0.2-0.2,0.3v7.9
	c0,0.1,0.1,0.2,0.2,0.3c0.1,0.1,0.2,0.1,0.4,0.1h1.3c0.2,0,0.3,0,0.4-0.1c0.1-0.1,0.2-0.2,0.2-0.3v-7.1h4.3v7.1c0,0.1,0,0.2,0.2,0.3
	c0.1,0.1,0.2,0.1,0.4,0.1h1.3c0.1,0,0.3,0,0.4-0.1c0.1-0.1,0.2-0.2,0.2-0.3v-7.1h3.9c0.1,0,0.2,0,0.3,0.1c0.1,0,0.1,0.2,0.1,0.4v6.6
	c0,0.1,0,0.2,0.2,0.3c0.1,0.1,0.2,0.1,0.4,0.1h1.2c0.2,0,0.3,0,0.4-0.1c0.1-0.1,0.2-0.2,0.2-0.3v-7c0-0.3,0-0.5-0.1-0.7
	C60.7,40.3,60.7,40.1,60.6,40"/>
<path class="st0" d="M85.1,40.3c-0.2-0.2-0.5-0.3-0.8-0.3c-0.3-0.1-0.7-0.1-1.2-0.1H76c-0.1,0-0.3,0-0.4,0.1
	c-0.1,0.1-0.2,0.2-0.2,0.3v7.9c0,0.1,0,0.2,0.2,0.3c0.1,0.1,0.2,0.1,0.4,0.1h1.2c0.2,0,0.3,0,0.4-0.1c0.1-0.1,0.1-0.2,0.1-0.3V41H83
	c0.2,0,0.3,0,0.3,0.1c0.1,0.1,0.1,0.2,0.1,0.3v6.7c0,0.1,0.1,0.2,0.2,0.3c0.1,0.1,0.2,0.1,0.4,0.1h1.1c0.1,0,0.3,0,0.4-0.1
	c0.1-0.1,0.2-0.2,0.2-0.3v-6.4c0-0.4-0.1-0.7-0.1-0.9C85.5,40.6,85.3,40.4,85.1,40.3"/>
<path class="st0" d="M97.7,39.9h-1.2c-0.1,0-0.3,0-0.4,0.1c-0.1,0.1-0.2,0.2-0.2,0.3v2.5h-6.2v-2.5l-0.1-0.2
	c-0.1-0.1-0.2-0.1-0.4-0.3h-1.2c-0.1,0-0.3,0-0.4,0.1c-0.1,0.1-0.2,0.2-0.2,0.3v7.9c0,0.1,0.1,0.2,0.2,0.3c0.1,0.1,0.2,0.1,0.4,0.1
	h1.2c0.2,0,0.3,0,0.4-0.1c0.1-0.1,0.2-0.2,0.2-0.3v-4.1h6.1v4.1c0,0.1,0.1,0.2,0.2,0.3c0.1,0.1,0.2,0.1,0.4,0.1h1.2
	c0.1,0,0.3,0,0.4-0.1c0.1-0.1,0.2-0.2,0.2-0.3v-7.9c0-0.1-0.1-0.2-0.2-0.3C98,39.9,97.8,39.9,97.7,39.9"/>
<path class="st0" d="M72.9,40.2c-0.4-0.2-1-0.3-1.8-0.3h-5.8c-0.4,0-0.8,0-1.1,0.1c-0.3,0-0.6,0.1-0.8,0.2c-0.2,0.1-0.4,0.3-0.5,0.4
	c-0.1,0.2-0.2,0.4-0.3,0.7v6.8c0,0.1,0.1,0.2,0.2,0.3c0.1,0.1,0.2,0.1,0.4,0.1h1.2c0.2,0,0.3,0,0.4-0.1c0.1-0.1,0.2-0.2,0.2-0.3
	v-4.1h6.4v4.1c0,0.1,0.1,0.2,0.1,0.3c0.1,0.1,0.2,0.1,0.4,0.1H73c0.2,0,0.3,0,0.4-0.1c0.1-0.1,0.2-0.2,0.2-0.3v-6.8
	C73.5,40.8,73.2,40.4,72.9,40.2 M71.3,42.7h-6.4l0-1.3c0-0.1,0-0.2,0.1-0.2c0.1,0,0.1-0.1,0.3-0.1h5.6c0.2,0,0.2,0,0.3,0.1
	c0.1,0,0.1,0.1,0.1,0.2V42.7z"/>
<path class="st0" d="M68.9,47.6h-1.5c-0.1,0-0.2,0-0.3,0.1L67,47.9V49l0.1,0.2c0.1,0.1,0.1,0.1,0.3,0.1h1.5c0.1,0,0.2,0,0.3-0.1
	l0.1-0.2v-1.2l-0.1-0.2C69.1,47.6,69,47.6,68.9,47.6"/>
<path class="st0" d="M39.3,29.3L39.3,29.3l7.1-11.8c0.4-0.6-0.1-1.3-0.8-1.3H31l9-15.1c0.3-0.4-0.1-1-0.6-1h-4.1
	c-0.8,0-1.6,0.4-2,1.1l-17,28.2c-0.3,0.5,0.1,1,0.6,1h20.4C38.2,30.4,38.9,29.9,39.3,29.3"/>
<path class="st0" d="M6.5,29.4c-0.3,0.5,0.1,1,0.6,1h4.1c0.8,0,1.6-0.4,2-1.1v0L30.2,1c0.3-0.4-0.1-1-0.6-1H9.3
	c-0.8,0-1.6,0.4-2,1.1L0.1,12.9c-0.3,0.6,0.1,1.3,0.8,1.3h14.6L6.5,29.4"/>
<path class="st0" d="M50.1,7.7c2.2,0,4-1.7,4-3.8c0-2.1-1.8-3.8-4-3.8c-2.2,0-4,1.7-4,3.8C46.1,6,47.9,7.7,50.1,7.7 M50.1,0.5
	c2,0,3.5,1.5,3.5,3.4c0,1.8-1.6,3.4-3.5,3.4c-1.9,0-3.5-1.5-3.5-3.4C46.6,2,48.2,0.5,50.1,0.5"/>
<path class="st0" d="M49.3,4.2h0.9c0.3,0,0.5,0.1,0.6,0.2c0.1,0.1,0.1,0.3,0.1,0.6c0,0.2,0,0.4,0,0.5c0,0.1,0.1,0.2,0.1,0.3h1V5.8
	c-0.1,0-0.2-0.1-0.2-0.2V4.9c0-0.4-0.1-0.6-0.2-0.8c-0.1-0.1-0.2-0.2-0.4-0.3c0.2-0.1,0.4-0.2,0.5-0.4C51.9,3.3,52,3.1,52,2.8
	c0-0.3-0.1-0.5-0.3-0.7c-0.2-0.3-0.6-0.5-1.2-0.5h-2.2v4.3h0.9V4.2 M49.3,2.4h1.1c0.2,0,0.4,0.1,0.5,0.2c0.1,0.1,0.1,0.2,0.1,0.4
	c0,0.2-0.1,0.4-0.2,0.5c-0.1,0.1-0.3,0.1-0.5,0.1h-1.1V2.4z"/>
<polyline class="st0" points="59.3,30.4 64.3,12 67.7,12 69,7.7 56.2,7.7 55,12 59.3,12 54.1,30.4 59.3,30.4 "/>
<polyline class="st0" points="69.2,30.4 71.9,20.7 74.9,20.7 72.2,30.4 77.4,30.4 83.8,7.7 78.5,7.7 76.1,16.2 73.2,16.2 75.5,7.7 
	70.4,7.7 64,30.4 69.2,30.4 "/>
<polyline class="st0" points="100.5,4.1 101.8,6.2 105,6.2 102.4,1.9 99.3,1.9 94.9,6.2 98.2,6.2 100.5,4.1 "/>
<polyline class="st0" points="85,30.4 91.4,7.7 86.2,7.7 79.8,30.4 85,30.4 "/>
<polyline class="st0" points="173.5,7.7 168.5,7.7 164.8,21.1 164.3,7.7 158.7,7.7 152.2,30.4 157.3,30.4 161.2,16.3 161.5,30.4 
	167.2,30.4 173.5,7.7 "/>
<path class="st0" d="M151.5,24.1c1-3.4,2-6.8,2.9-10.2c0.5-2.1,0.4-5-2.2-5.9c-1.9-0.5-4-0.5-5.9,0.1c-2.6,1-4.5,3.2-5.2,5.7
	l-2.9,10.2c-0.4,1.4-0.4,2.9,0.3,4.2c1.7,3.3,7.7,2,10.1,0.1C150,27.3,151,25.8,151.5,24.1 M149.4,13l-3.1,11.6
	c-0.8,2.4-3.8,2.9-3.1,0.3l3.3-11.9C146.9,11.1,149.9,10.5,149.4,13"/>
<path class="st0" d="M187.3,9.1c-1.7-2-6.3-1.5-8.3-0.7c-2.2,1-4.1,3-4.7,5.2l-3.1,10.7c-2.6,8.3,5.8,6.5,7.7,3.9l-0.6,2.2h4.5
	l3.6-12.5h-6.9l-1.2,4h1.9l-0.8,2.7c-0.5,2-3.9,2.6-3.2,0l3.2-11.3c0.2-1.7,4.2-2.9,3.3-0.2l-0.7,2.3h4.9l0.8-2.6
	C188.1,12.3,188.6,10.4,187.3,9.1"/>
<polyline class="st0" points="100.9,20.9 102.1,16.5 96.5,16.5 97.8,12 104.4,12 105.6,7.7 93.8,7.7 87.5,30.4 99.3,30.4 100.5,26 
	93.9,26 95.3,20.9 100.9,20.9 "/>
<polyline class="st0" points="117.6,7.7 113.8,21.1 113.3,7.7 107.7,7.7 101.2,30.4 106.3,30.4 110.2,16.3 110.6,30.4 116.2,30.4 
	122.5,7.7 117.6,7.7 "/>
<polyline class="st0" points="135.8,7.7 130.7,7.7 124.3,30.4 135.1,30.4 136.4,26 130.7,26 135.8,7.7 "/>
<path class="st1" d="M114.2,39.9h-9.5c-0.2,0-0.3,0-0.4,0.1c-0.1,0.1-0.2,0.2-0.2,0.3v0.4c0,0.1,0.1,0.2,0.2,0.3
	c0.1,0.1,0.2,0.1,0.4,0.1h3.6v7.1c0,0.1,0.1,0.2,0.2,0.3c0.1,0.1,0.2,0.1,0.4,0.1h1.2c0.2,0,0.3,0,0.4-0.1c0.1-0.1,0.2-0.2,0.2-0.3
	V41h3.7c0.2,0,0.3,0,0.4-0.1c0.1-0.1,0.1-0.2,0.1-0.3v-0.4c0-0.1-0.1-0.2-0.1-0.3C114.4,39.9,114.3,39.9,114.2,39.9"/>
<path class="st1" d="M126.1,40.3c-0.2-0.2-0.5-0.3-0.8-0.3c-0.3-0.1-0.7-0.1-1.2-0.1h-7c-0.2,0-0.3,0-0.4,0.1
	c-0.1,0.1-0.2,0.2-0.2,0.3v7.9c0,0.1,0.1,0.2,0.2,0.3c0.1,0.1,0.2,0.1,0.4,0.1h1.2c0.2,0,0.3,0,0.4-0.1c0.1-0.1,0.2-0.2,0.2-0.3
	v-4.2h3l2.7,4.5v0c0,0.1,0.1,0.1,0.2,0.1c0.1,0,0.2,0.1,0.3,0.1h1c0.2,0,0.3,0,0.4-0.1c0.1-0.1,0.2-0.2,0.2-0.3c0-0.1,0-0.2-0.1-0.2
	l-2.4-4h0c0.5,0,0.9,0,1.2-0.1c0.3-0.1,0.6-0.2,0.8-0.3c0.2-0.2,0.4-0.4,0.4-0.6c0.1-0.2,0.1-0.6,0.1-0.9v-0.1c0-0.4,0-0.7-0.1-0.9
	C126.5,40.6,126.3,40.4,126.1,40.3 M124.4,42.3c0,0.2,0,0.3-0.1,0.4c-0.1,0.1-0.2,0.1-0.4,0.1h-5.2V41h5.2c0.2,0,0.3,0,0.4,0.1
	c0,0.1,0.1,0.2,0.1,0.4V42.3z"/>
<path class="st1" d="M130.3,39.9h-1.2c-0.2,0-0.3,0-0.4,0.1c-0.1,0.1-0.2,0.2-0.2,0.3v7.9c0,0.1,0.1,0.2,0.2,0.3
	c0.1,0.1,0.2,0.1,0.4,0.1h1.2c0.1,0,0.3,0,0.4-0.1c0.1-0.1,0.1-0.2,0.1-0.3v-7.9c0-0.1,0-0.2-0.1-0.3
	C130.5,39.9,130.4,39.9,130.3,39.9"/>
<path class="st1" d="M15.7,39.9H9c-0.5,0-0.9,0-1.2,0.1C7.5,40,7.2,40.1,7,40.3c-0.2,0.1-0.3,0.4-0.4,0.6c-0.1,0.3-0.1,0.6-0.1,0.9
	v0.8c0,0.4,0.1,0.7,0.1,0.9C6.6,43.8,6.8,44,7,44.1c0.2,0.2,0.5,0.3,0.8,0.3c0.3,0,0.7,0.1,1.2,0.1h4.6c0.2,0,0.3,0,0.4,0.1
	C14,44.7,14,44.8,14,45v1.9c0,0.2,0,0.3-0.1,0.4c-0.1,0.1-0.2,0.1-0.4,0.1H7c-0.1,0-0.3,0-0.4,0.1c-0.1,0.1-0.1,0.2-0.1,0.3v0.5
	c0,0.1,0,0.2,0.1,0.3c0.1,0.1,0.2,0.1,0.4,0.1h6.8c0.5,0,0.8,0,1.1-0.1c0.3-0.1,0.6-0.2,0.8-0.3c0.2-0.1,0.3-0.3,0.4-0.4
	c0.1-0.2,0.1-0.4,0.1-0.6v-2.4c0-0.4,0-0.7-0.1-0.9c-0.1-0.3-0.2-0.5-0.4-0.6c-0.2-0.2-0.5-0.3-0.8-0.3c-0.3-0.1-0.7-0.1-1.2-0.1
	H9.1c-0.2,0-0.3,0-0.3-0.1c-0.1-0.1-0.1-0.2-0.1-0.4v-0.8c0-0.2,0-0.3,0.1-0.4c0,0,0.2-0.1,0.3-0.1h6.6c0.1,0,0.3-0.1,0.4-0.1
	c0.1-0.1,0.1-0.2,0.1-0.3v-0.5c0-0.1,0-0.2-0.1-0.3C16,39.9,15.8,39.9,15.7,39.9"/>
<path class="st1" d="M38.8,39.9h-6.1c-0.5,0-0.9,0-1.2,0.1c-0.3,0.1-0.6,0.2-0.8,0.3c-0.2,0.2-0.3,0.4-0.4,0.6
	c-0.1,0.3-0.1,0.5-0.1,0.9v4.8c0,0.4,0,0.7,0.1,0.9c0.1,0.2,0.2,0.4,0.4,0.6c0.2,0.1,0.5,0.3,0.8,0.3c0.3,0.1,0.7,0.1,1.2,0.1h6
	c0.2,0,0.3,0,0.4-0.1c0.1-0.1,0.2-0.2,0.2-0.3l0-0.4v0c0-0.1-0.1-0.2-0.2-0.3c-0.1-0.1-0.2-0.1-0.4-0.1h-5.9c-0.2,0-0.3,0-0.3-0.1
	c-0.1,0-0.1-0.2-0.1-0.4v-5.4c0-0.2,0-0.3,0.1-0.4c0.1-0.1,0.2-0.1,0.3-0.1h6c0.2,0,0.3,0,0.4-0.1c0.1-0.1,0.2-0.2,0.2-0.3v-0.4
	c0-0.1-0.1-0.2-0.2-0.3C39.1,40,39,39.9,38.8,39.9"/>
<path class="st1" d="M28.9,38.2h-1.2c-0.1,0-0.2,0-0.2,0.1l-0.1,0.2v0.8l0.1,0.2c0.1,0.1,0.1,0.1,0.2,0.1h0.2l-0.2,0.4h-1.2
	c-0.2,0-0.3,0-0.4,0.1c-0.1,0.1-0.1,0.2-0.1,0.3l0,7.1h-5.3c-0.2,0-0.3,0-0.3-0.1c-0.1,0-0.1-0.2-0.1-0.4v-6.7
	c0-0.1-0.1-0.2-0.2-0.3c-0.1-0.1-0.2-0.1-0.4-0.1h-1.2c-0.1,0-0.3,0-0.4,0.1c-0.1,0.1-0.2,0.2-0.2,0.3v6.4c0,0.4,0.1,0.7,0.1,0.9
	c0.1,0.2,0.2,0.4,0.4,0.6c0.2,0.1,0.5,0.3,0.8,0.3c0.3,0.1,0.7,0.1,1.2,0.1h7.1c0.2,0,0.3,0,0.4-0.1c0.1-0.1,0.2-0.2,0.2-0.3v-7.6
	l1-1.3v-0.9l-0.1-0.2C29.1,38.2,29,38.2,28.9,38.2"/>
<path class="st1" d="M23.4,39h0.9l0.1,0l0.1-0.1l2.5-1.9c0.1-0.1,0.1-0.2,0.1-0.3c-0.1-0.1-0.2-0.2-0.3-0.2h-1.4l-0.2,0l-0.1,0.1
	l-2,1.9c-0.1,0.1-0.1,0.2-0.1,0.3C23.1,38.9,23.2,39,23.4,39"/>
<path class="st1" d="M146.7,39.9h-9.5c-0.2,0-0.3,0-0.4,0.1c-0.1,0.1-0.1,0.2-0.1,0.3v0.4c0,0.1,0.1,0.2,0.1,0.3
	c0.1,0.1,0.2,0.1,0.4,0.1h3.6v7.1c0,0.1,0,0.2,0.1,0.3c0.1,0.1,0.2,0.1,0.4,0.1h1.2c0.1,0,0.3,0,0.4-0.1c0.1-0.1,0.2-0.2,0.2-0.3V41
	h3.7c0.2,0,0.3,0,0.4-0.1c0.1-0.1,0.1-0.2,0.1-0.3v-0.4c0-0.1-0.1-0.2-0.1-0.3C147,39.9,146.9,39.9,146.7,39.9"/>
<path class="st1" d="M159.3,39.9h-1.2c-0.2,0-0.3,0-0.4,0.1c-0.1,0.1-0.1,0.2-0.1,0.3v2.5h-6.2v-2.5l-0.1-0.2
	c-0.1-0.1-0.2-0.1-0.4-0.3h-1.2c-0.2,0-0.3,0-0.4,0.1c-0.1,0.1-0.2,0.2-0.2,0.3v7.9c0,0.1,0.1,0.2,0.2,0.3c0.1,0.1,0.2,0.1,0.4,0.1
	h1.2c0.2,0,0.3,0,0.4-0.1c0.1-0.1,0.2-0.2,0.2-0.3v-4.1h6.1v4.1c0,0.1,0,0.2,0.1,0.3c0.1,0.1,0.2,0.1,0.4,0.1h1.2
	c0.2,0,0.3,0,0.4-0.1c0.1-0.1,0.2-0.2,0.2-0.3v-7.9c0-0.1-0.1-0.2-0.2-0.3C159.6,39.9,159.4,39.9,159.3,39.9"/>
<path class="st1" d="M176.1,41.2c0.1-0.1,0.2-0.1,0.3-0.1h6c0.2,0,0.3,0,0.4-0.1c0.1-0.1,0.2-0.2,0.2-0.3v-0.4
	c0-0.1-0.1-0.2-0.2-0.3c-0.1-0.1-0.2-0.1-0.4-0.1h-6.1c-0.5,0-0.9,0-1.2,0.1c-0.3,0.1-0.6,0.2-0.8,0.3c-0.2,0.2-0.4,0.4-0.4,0.6
	c-0.1,0.3-0.1,0.6-0.1,0.9v4.8c0,0.4,0,0.7,0.1,0.9c0.1,0.2,0.2,0.4,0.4,0.6c0.2,0.1,0.5,0.3,0.8,0.3c0.3,0.1,0.8,0.1,1.2,0.1h6
	c0.2,0,0.3,0,0.4-0.1c0.1-0.1,0.2-0.2,0.2-0.3l0-0.4v0c0-0.1-0.1-0.2-0.2-0.3c-0.1-0.1-0.2-0.1-0.4-0.1h-5.9c-0.2,0-0.3,0-0.3-0.1
	c-0.1,0-0.1-0.2-0.1-0.4v-5.4C176,41.4,176,41.2,176.1,41.2"/>
<path class="st1" d="M172.5,38.2h-1.2l-0.2,0.1l-0.1,0.2v0.8l0.1,0.2l0.2,0.1h0.2l-0.2,0.4h-1.2c-0.2,0-0.3,0-0.4,0.1
	c-0.1,0.1-0.2,0.2-0.2,0.3l0,7.1h-5.3c-0.2,0-0.3,0-0.3-0.1c-0.1,0-0.1-0.2-0.1-0.4v-6.7c0-0.1-0.1-0.2-0.1-0.3
	c-0.1-0.1-0.2-0.1-0.4-0.1h-1.2c-0.2,0-0.3,0-0.4,0.1c-0.1,0.1-0.2,0.2-0.2,0.3v6.4c0,0.4,0.1,0.7,0.1,0.9c0.1,0.2,0.2,0.4,0.4,0.6
	c0.2,0.1,0.5,0.3,0.8,0.3c0.3,0.1,0.7,0.1,1.2,0.1h7.1c0.2,0,0.3,0,0.4-0.1c0.1-0.1,0.1-0.2,0.1-0.3v-7.6l1-1.3v-0.9l-0.1-0.2
	C172.7,38.2,172.6,38.2,172.5,38.2"/>
<path class="st1" d="M167,39h0.9l0.1,0l0.1-0.1l2.5-1.9c0.1-0.1,0.2-0.2,0.1-0.3c-0.1-0.1-0.2-0.2-0.3-0.2H169l-0.2,0l-0.1,0.1
	l-2,1.9c-0.1,0.1-0.1,0.2-0.1,0.3C166.7,38.9,166.8,39,167,39"/>
<path class="st1" d="M60.6,40c-0.1-0.1-0.2-0.1-0.3-0.1c-0.1,0-0.3,0-0.5,0h-14c-0.2,0-0.3,0-0.4,0.1c-0.1,0.1-0.2,0.2-0.2,0.3v7.9
	c0,0.1,0.1,0.2,0.2,0.3c0.1,0.1,0.2,0.1,0.4,0.1h1.3c0.2,0,0.3,0,0.4-0.1c0.1-0.1,0.2-0.2,0.2-0.3v-7.1h4.3v7.1c0,0.1,0,0.2,0.2,0.3
	c0.1,0.1,0.2,0.1,0.4,0.1h1.3c0.1,0,0.3,0,0.4-0.1c0.1-0.1,0.2-0.2,0.2-0.3v-7.1h3.9c0.1,0,0.2,0,0.3,0.1c0.1,0,0.1,0.2,0.1,0.4v6.6
	c0,0.1,0,0.2,0.2,0.3c0.1,0.1,0.2,0.1,0.4,0.1h1.2c0.2,0,0.3,0,0.4-0.1c0.1-0.1,0.2-0.2,0.2-0.3v-7c0-0.3,0-0.5-0.1-0.7
	C60.7,40.3,60.7,40.1,60.6,40"/>
<path class="st1" d="M85.1,40.3c-0.2-0.2-0.5-0.3-0.8-0.3c-0.3-0.1-0.7-0.1-1.2-0.1H76c-0.1,0-0.3,0-0.4,0.1
	c-0.1,0.1-0.2,0.2-0.2,0.3v7.9c0,0.1,0,0.2,0.2,0.3c0.1,0.1,0.2,0.1,0.4,0.1h1.2c0.2,0,0.3,0,0.4-0.1c0.1-0.1,0.1-0.2,0.1-0.3V41H83
	c0.2,0,0.3,0,0.3,0.1c0.1,0.1,0.1,0.2,0.1,0.3v6.7c0,0.1,0.1,0.2,0.2,0.3c0.1,0.1,0.2,0.1,0.4,0.1h1.1c0.1,0,0.3,0,0.4-0.1
	c0.1-0.1,0.2-0.2,0.2-0.3v-6.4c0-0.4-0.1-0.7-0.1-0.9C85.5,40.6,85.3,40.4,85.1,40.3"/>
<path class="st1" d="M97.7,39.9h-1.2c-0.1,0-0.3,0-0.4,0.1c-0.1,0.1-0.2,0.2-0.2,0.3v2.5h-6.2v-2.5l-0.1-0.2
	c-0.1-0.1-0.2-0.1-0.4-0.3h-1.2c-0.1,0-0.3,0-0.4,0.1c-0.1,0.1-0.2,0.2-0.2,0.3v7.9c0,0.1,0.1,0.2,0.2,0.3c0.1,0.1,0.2,0.1,0.4,0.1
	h1.2c0.2,0,0.3,0,0.4-0.1c0.1-0.1,0.2-0.2,0.2-0.3v-4.1h6.1v4.1c0,0.1,0.1,0.2,0.2,0.3c0.1,0.1,0.2,0.1,0.4,0.1h1.2
	c0.1,0,0.3,0,0.4-0.1c0.1-0.1,0.2-0.2,0.2-0.3v-7.9c0-0.1-0.1-0.2-0.2-0.3C98,39.9,97.8,39.9,97.7,39.9"/>
<path class="st1" d="M72.9,40.2c-0.4-0.2-1-0.3-1.8-0.3h-5.8c-0.4,0-0.8,0-1.1,0.1c-0.3,0-0.6,0.1-0.8,0.2c-0.2,0.1-0.4,0.3-0.5,0.4
	c-0.1,0.2-0.2,0.4-0.3,0.7v6.8c0,0.1,0.1,0.2,0.2,0.3c0.1,0.1,0.2,0.1,0.4,0.1h1.2c0.2,0,0.3,0,0.4-0.1c0.1-0.1,0.2-0.2,0.2-0.3
	v-4.1h6.4v4.1c0,0.1,0.1,0.2,0.1,0.3c0.1,0.1,0.2,0.1,0.4,0.1H73c0.2,0,0.3,0,0.4-0.1c0.1-0.1,0.2-0.2,0.2-0.3v-6.8
	C73.5,40.8,73.2,40.4,72.9,40.2 M71.3,42.7h-6.4l0-1.3c0-0.1,0-0.2,0.1-0.2c0.1,0,0.1-0.1,0.3-0.1h5.6c0.2,0,0.2,0,0.3,0.1
	c0.1,0,0.1,0.1,0.1,0.2V42.7z"/>
<path class="st1" d="M68.9,47.6h-1.5c-0.1,0-0.2,0-0.3,0.1L67,47.9V49l0.1,0.2c0.1,0.1,0.1,0.1,0.3,0.1h1.5c0.1,0,0.2,0,0.3-0.1
	l0.1-0.2v-1.2l-0.1-0.2C69.1,47.6,69,47.6,68.9,47.6"/>
<path class="st2" d="M33.3,1.1c0.4-0.7,1.2-1.1,2-1.1h4.1c0.5,0,0.9,0.6,0.6,1l-9,15.1h14.6c0.7,0,1.2,0.7,0.8,1.3l-7.1,11.8v0
	c-0.4,0.7-1.2,1.1-2,1.1H16.9c-0.5,0-0.9-0.6-0.6-1L33.3,1.1"/>
<path class="st3" d="M7.1,30.4c-0.5,0-0.9-0.6-0.6-1l9-15.1H0.9c-0.7,0-1.1-0.7-0.8-1.3L7.2,1.1C7.6,0.4,8.4,0,9.3,0h20.4
	c0.5,0,0.9,0.6,0.6,1l-17,28.2v0c-0.4,0.7-1.2,1.1-2,1.1h0H7.1"/>
<path class="st4" d="M48.4,5.9V1.6h2.2c0.5,0,0.9,0.2,1.2,0.5C51.9,2.3,52,2.6,52,2.8c0,0.2-0.1,0.5-0.2,0.6
	c-0.1,0.2-0.3,0.3-0.5,0.4c0.2,0.1,0.3,0.2,0.4,0.3c0.1,0.2,0.2,0.4,0.2,0.8v0.6c0,0.1,0.1,0.2,0.2,0.2v0.1h-1C51,5.8,51,5.7,51,5.5
	c0-0.1,0-0.3,0-0.5c0-0.3,0-0.5-0.1-0.6c-0.1-0.1-0.3-0.2-0.6-0.2h-0.9v1.7H48.4 M49.3,3.5h1.1c0.2,0,0.4,0,0.5-0.1
	c0.1-0.1,0.2-0.2,0.2-0.5c0-0.1,0-0.3-0.1-0.4c-0.1-0.1-0.3-0.2-0.5-0.2h-1.1V3.5z M50.1,0c-2.2,0-4,1.7-4,3.8c0,2.1,1.8,3.8,4,3.8
	c2.2,0,4-1.7,4-3.8C54.1,1.7,52.3,0,50.1,0 M50.1,0.5c-1.9,0-3.5,1.5-3.5,3.4c0,1.8,1.6,3.4,3.5,3.4c2,0,3.5-1.5,3.5-3.4
	C53.6,2,52.1,0.5,50.1,0.5"/>
<path class="st5" d="M174.3,13.6c0.6-2.3,2.5-4.2,4.7-5.2c2-0.8,6.5-1.3,8.3,0.7c1.2,1.3,0.8,3.2,0.6,3.8l-0.8,2.6h-4.9l0.7-2.3
	c0.8-2.7-3.1-1.5-3.3,0.2l-3.2,11.3c-0.7,2.6,2.6,2,3.2,0l0.8-2.7h-1.9l1.2-4h6.9l-3.6,12.5h-4.5l0.6-2.2c-1.9,2.6-10.3,4.4-7.7-3.9
	L174.3,13.6 M173.5,7.7l-5,0l-3.7,13.4l-0.5-13.4h-5.6l-6.4,22.7h5.1l3.9-14.1l0.3,14.1h5.6L173.5,7.7z M138.5,28.3
	c-0.7-1.3-0.7-2.8-0.3-4.2l2.9-10.2c0.7-2.5,2.5-4.7,5.2-5.7c1.9-0.6,4-0.6,5.9-0.1c2.6,0.9,2.8,3.8,2.3,5.9
	c-1,3.4-1.9,6.8-2.9,10.2c-0.5,1.7-1.5,3.2-3,4.4C146.2,30.3,140.2,31.7,138.5,28.3 M143.2,24.9c-0.7,2.7,2.3,2.1,3.1-0.3l3.1-11.6
	c0.5-2.6-2.4-1.9-2.9,0L143.2,24.9z M135.8,7.7L130.7,26h5.7l-1.2,4.4h-10.8l6.4-22.7H135.8z M105,6.2l-3.1,0l-1.3-2.2l-2.3,2.2
	l-3.3,0l4.4-4.2h3L105,6.2z M105.6,7.7l-1.2,4.4h-6.5l-1.3,4.5h5.5l-1.2,4.4l-5.5,0L93.9,26h6.6l-1.2,4.4H87.5l6.3-22.7H105.6z
	 M91.4,7.7h-5.2l-6.4,22.7H85L91.4,7.7z M78.5,7.7h5.3l-6.4,22.7h-5.2l2.7-9.7h-3l-2.7,9.7H64l6.4-22.7h5.2l-2.4,8.5h3L78.5,7.7z
	 M56.2,7.7L55,12h4.2l-5.1,18.4h5.1L64.3,12h3.4L69,7.7H56.2z M122.5,7.7l-5,0l-3.7,13.4l-0.6-13.4h-5.6l-6.4,22.7h5.1l3.9-14.1
	l0.3,14.1h5.6L122.5,7.7z"/>
</svg>
