<?xml version="1.0" encoding="UTF-8"?>
<svg width="161px" height="32px" viewBox="0 0 161 32" version="1.1" xmlns="http://www.w3.org/2000/svg" xmlns:xlink="http://www.w3.org/1999/xlink">
    <!-- Generator: Sketch 62 (91390) - https://sketch.com -->
    <title>#logo bizner</title>
    <desc>Created with Sketch.</desc>
    <g id="#logo-bizner" stroke="none" stroke-width="1" fill="none" fill-rule="evenodd">
        <g id="Group-4" fill="#D5B75F" fill-rule="nonzero">
            <path d="M59.2156778,19.7045496 C59.2890315,21.4467042 58.4691935,23.1053888 57.0428154,24.1006544 C55.3499119,25.2150379 53.349727,25.7644957 51.3274261,25.6706918 L40.4969325,25.6706918 L40.4969325,4.95468457 L50.8962355,4.95468457 C52.9663269,4.83523977 55.0199922,5.38554965 56.755355,6.52472198 C58.1231214,7.49399432 58.9141024,9.08831552 58.8605797,10.7680664 C58.8854117,11.7638512 58.5317358,12.7317935 57.8713777,13.4753201 C57.2881564,14.1642053 56.548822,14.7026134 55.7154247,15.0453575 C56.6628407,15.412034 57.5133888,15.9928261 58.2011117,16.7426952 C58.9356264,17.5506909 59.3163621,18.6207821 59.2579514,19.7130363 M53.8300226,10.9547735 C53.8492473,10.2708178 53.533368,9.62081661 52.9845508,9.21500231 C52.2530624,8.74345436 51.3923276,8.51483854 50.5242279,8.56152728 L45.5697632,8.56152728 L45.5697632,13.339533 L50.4988637,13.339533 C51.3670823,13.3873846 52.2281679,13.1586756 52.9591866,12.686058 C53.4967909,12.2898908 53.8114812,11.6581303 53.8046584,10.9887203 M54.1597566,19.5263291 C54.1744836,18.8267268 53.8614967,18.1606855 53.3142848,17.7271511 C52.5795252,17.1949943 51.6815205,16.9395975 50.7778694,17.0057826 L45.5697632,17.0057826 L45.5697632,22.0977958 L50.820143,22.0977958 C51.7248184,22.1615339 52.6229214,21.9031041 53.3565584,21.3679406 C53.9073191,20.9186389 54.2195629,20.2385075 54.2020302,19.5263291" id="Shape"></path>
            <polygon id="Rectangle-path" points="63.2147239 4.93865031 67.1656442 4.93865031 67.1656442 25.6809816 63.2147239 25.6809816"></polygon>
            <polygon id="Shape" points="87.9079755 25.6809816 71.1165644 25.6809816 71.1165644 22.417952 82.0205131 8.55007628 71.5855515 8.55007628 71.5855515 4.93865031 87.9079755 4.93865031 87.9079755 8.15069505 76.9705277 22.0780531 87.9079755 22.0780531"></polygon>
            <polygon id="Shape" points="112.601227 25.6809816 107.882213 25.6809816 97.1377924 12.9517672 97.1377924 25.6809816 91.8588957 25.6809816 91.8588957 4.93865031 96.5690223 4.93865031 107.313443 17.6423723 107.313443 4.93865031 112.601227 4.93865031"></polygon>
            <polygon id="Shape" points="131.368098 25.6809816 114.576687 25.6809816 114.576687 4.93865031 131.368098 4.93865031 131.368098 8.55007628 119.549753 8.55007628 119.549753 13.4276257 129.60454 13.4276257 129.60454 17.0220567 119.549753 17.0220567 119.549753 22.0780531 131.368098 22.0780531"></polygon>
            <path d="M158.76412,8.09282235 L158.76412,8.09282235 C159.264738,7.96999812 159.637122,7.67280798 159.745857,7.30932471 C159.854591,6.94584144 159.683834,6.56902 159.295681,6.31589098 C158.783821,6.07529785 158.168405,5.96676646 157.554817,6.0088819 C157.03377,5.99810804 156.512564,6.02617594 156,6.09261165 L156,10 L157.009967,10 L157.009967,8.3440116 L157.541528,8.3440116 C158.126246,8.3440116 158.405316,8.5114711 158.538206,9.03245622 C158.630163,9.35045148 158.763613,9.66186763 158.936877,9.96278678 L160,9.96278678 C159.814369,9.60120541 159.663425,9.23135201 159.548173,8.85569341 C159.487437,8.52278335 159.193282,8.23308423 158.76412,8.08351905 M157.621262,7.78581327 L157.009967,7.78581327 L157.009967,6.54847362 C157.226402,6.53224104 157.444695,6.53224104 157.66113,6.54847362 C158.33887,6.54847362 158.777409,6.73453974 158.777409,7.1717951 C158.777409,7.60905046 158.33887,7.82302649 157.634551,7.82302649" id="Shape"></path>
            <path d="M157.971847,5.00001252 C156.772588,4.9965389 155.689476,5.71627027 155.228122,6.82323931 C154.766768,7.93020835 155.018151,9.20611798 155.864924,10.0553571 C156.711696,10.9045962 157.986872,11.1596926 159.095182,10.7015641 C160.203492,10.2434356 160.92638,9.16242629 160.92638,7.96316522 C160.92638,6.33002613 159.604983,5.00477262 157.971847,5.00001252 M157.971847,10.4956311 C156.943303,10.499103 156.014096,9.88220784 155.618071,8.93295828 C155.222046,7.98370873 155.437318,6.88934159 156.163376,6.160815 C156.889435,5.43228841 157.983068,5.21330224 158.933659,5.60610076 C159.88425,5.99889927 160.504304,6.92600403 160.504304,7.95455144 C160.504304,9.35458582 159.371877,10.4908705 157.971847,10.4956311" id="Shape"></path>
            <path d="M155.07362,25.6809816 L149.485731,25.6809816 L145.714514,19.2060658 C145.449386,18.722545 145.11885,18.2817817 144.733187,17.897487 C144.213665,17.5362477 143.595548,17.3631507 142.973286,17.4046456 C142.527228,17.4046456 141.172834,17.4046456 141.172834,17.4046456 L141.172834,25.6809816 L136.306748,25.6809816 L136.306748,4.9391581 L146.03892,4.9391581 C147.173172,4.92811828 148.302478,5.09714833 149.388409,5.44049672 C150.312643,5.72492032 151.178751,6.18584742 151.943104,6.8000591 C152.608774,7.34781756 153.149116,8.04459871 153.524582,8.83940266 C153.883123,9.60311929 154.066417,10.4440349 154.059852,11.2951122 C154.09409,12.5815655 153.632181,13.8282156 152.778449,14.753499 C151.890391,15.7120481 150.768291,16.3968709 149.534392,16.7333617 L155.057399,25.6809816 M149.226206,11.2951122 C149.245426,10.5064661 148.882172,9.76126976 148.261099,9.3152495 C147.516537,8.77179417 146.620797,8.50279843 145.714514,8.55049566 L141.172834,8.55049566 L141.172834,13.9887452 L145.714514,13.9887452 C146.618008,14.0326305 147.510964,13.7704299 148.261099,13.2409859 C148.877618,12.7907888 149.239527,12.0483528 149.226206,11.2611231" id="Shape"></path>
            <path d="M18.7476655,4.79932375 L18.7476655,4.73468713 C18.5285798,2.83184101 17.2677371,1.18820683 15.4441859,0.428272337 C14.6593853,0.141907132 13.8267105,-0.00323614847 12.9875375,0 C11.8448784,0.0486586109 10.7461428,0.438290296 9.84336281,1.11503642 L9.44090846,1.45437868 C6.64888136,3.76513783 0,9.25117094 0,9.25117094 L10.6063492,20.6514548 L10.7237317,18.2275815 C8.35092791,15.7067533 5.50020955,12.6365139 3.29509505,10.2530385 L4.82945228,8.96838573 C5.76405127,8.16110664 6.85552628,7.54047099 8.04070267,7.14240122 C9.50034318,6.54320038 11.1955866,7.04900076 12.0484773,8.33817868 C12.4781502,9.04993591 12.7627351,9.83425205 12.8869239,10.6489378 C13.1225092,12.0072483 13.2096251,13.3856213 13.1468423,14.7614428 C12.979153,19.9404519 12.7695414,23.0430097 12.4257783,29.0380562 C14.8405044,31.6154414 14.8488889,31.607362 14.8488889,31.607362 L18.3955179,9.58243361 C18.7427278,8.01147587 18.8472641,6.39971642 18.7057431,4.79932375" id="Shape"></path>
            <path d="M32.8465678,11.099182 C29.8818371,7.81738535 20.3399656,12.142625 19.4824742,12.5297087 L19.1905623,14.2800003 C22.1644152,13.3207059 24.6000555,13.5058329 24.9467009,15.2897839 C25.3663243,17.4187443 22.4745716,19.6234384 17.5120686,24.2431983 L16.791411,28.6441718 C18.9533839,26.9611991 25.9136592,21.4578786 31.0586071,17.3009362 C33.6493256,15.2056352 34.2240272,12.6222722 32.8830568,11.099182" id="Shape"></path>
        </g>
    </g>
</svg>